<svg width="17" height="18" viewBox="0 0 17 18" fill="none" xmlns="http://www.w3.org/2000/svg">
<rect width="17" height="18" fill="#F5F5F5"/>
<g clip-path="url(#clip0_1_5)">
<rect width="1919" height="8947" transform="translate(-1691 -54)" fill="white"/>
<rect x="-1691" y="-54" width="1919" height="8947" fill="white"/>
<rect x="-1692" y="-54" width="1920" height="125" fill="white"/>
<rect width="199.5" height="50" transform="translate(-31.1123 -16)" fill="#7A9CA5"/>
<path d="M13.8877 3H3.3877C2.55927 3 1.8877 3.67157 1.8877 4.5V15C1.8877 15.8284 2.55927 16.5 3.3877 16.5H13.8877C14.7161 16.5 15.3877 15.8284 15.3877 15V4.5C15.3877 3.67157 14.7161 3 13.8877 3Z" stroke="white" stroke-width="2" stroke-linecap="round" stroke-linejoin="round"/>
<path d="M11.6377 1.5V4.5" stroke="white" stroke-width="2" stroke-linecap="round" stroke-linejoin="round"/>
<path d="M5.6377 1.5V4.5" stroke="white" stroke-width="2" stroke-linecap="round" stroke-linejoin="round"/>
<path d="M1.8877 7.5H15.3877" stroke="white" stroke-width="2" stroke-linecap="round" stroke-linejoin="round"/>
</g>
<defs>
<clipPath id="clip0_1_5">
<rect width="1919" height="8947" fill="white" transform="translate(-1691 -54)"/>
</clipPath>
</defs>
</svg>
